<?xml version="1.0" encoding="utf-8"?><svg xml:space="preserve" viewBox="0 0 100 100" y="0" x="0" xmlns="http://www.w3.org/2000/svg" id="圖層_1" version="1.1" width="200px" height="200px" xmlns:xlink="http://www.w3.org/1999/xlink" style="width:100%;height:100%;background-color:rgb(241, 242, 243);animation-play-state:paused" ><g class="ldl-scale" style="transform-origin:50% 50% 0px;transform:rotate(0deg) scale(0.8);animation-play-state:paused" ><path stroke-miterlimit="10" stroke-width="3.5" stroke="#333" fill="#666" d="M40.928 44.411h-16.32C17.093 44.411 11 38.319 11 30.803v0c0-.465.377-.841.841-.841h32.583v10.954a3.495 3.495 0 0 1-3.496 3.495z" style="stroke:rgb(229, 92, 48);fill:rgb(132, 32, 107);animation-play-state:paused" ></path>
<path stroke-miterlimit="10" stroke-width="3.5" stroke="#333" fill="#666" d="M84.178 27.604H30.743v19.131h0c5.388 0 9.756 4.368 9.756 9.756v1.06a3.496 3.496 0 0 1-3.496 3.496h0c-6.268 0-11.349 5.081-11.349 11.349h48.213c0-6.268-5.081-11.349-11.349-11.349h0a3.496 3.496 0 0 1-3.496-3.496v-.713c0-5.58 4.524-10.104 10.104-10.104h0c6.684 0 12.752-2.942 15.523-7.526l3.912-6.47c1.453-2.403-.878-5.134-4.383-5.134z" style="stroke:rgb(229, 92, 48);fill:rgb(132, 32, 107);animation-play-state:paused" ></path>
<path stroke-miterlimit="10" stroke-width="3.5" stroke="#000" opacity=".2" d="M84.178 27.604H54.833v44.793h19.034c0-6.268-5.081-11.349-11.349-11.349a3.496 3.496 0 0 1-3.496-3.496v-.713c0-5.58 4.524-10.104 10.104-10.104 6.684 0 12.752-2.942 15.523-7.526l3.912-6.47c1.453-2.404-.878-5.135-4.383-5.135z" style="stroke:rgb(246, 215, 70);fill:rgb(246, 215, 70);animation-play-state:paused" ></path>
<path d="M36 33.167h5.833" stroke-miterlimit="10" stroke-linecap="round" stroke-width="3.5" stroke="#fff" fill="none" style="stroke:rgb(20, 11, 52);animation-play-state:paused" ></path>
<path d="M47.167 33.167H48" stroke-miterlimit="10" stroke-linecap="round" stroke-width="3.5" stroke="#fff" fill="none" style="stroke:rgb(20, 11, 52);animation-play-state:paused" ></path>
<path d="M18.37 34.955h5.768" stroke-miterlimit="10" stroke-linecap="round" stroke-width="3.5" stroke="#fff" fill="none" style="stroke:rgb(20, 11, 52);animation-play-state:paused" ></path>
<metadata xmlns:d="https://loading.io/stock/" style="animation-play-state:paused" ><d:name style="animation-play-state:paused" >anvil</d:name>
<d:tags style="animation-play-state:paused" >anvil,forge,blacksmith,workshop,metal,hand tool,weapon,hammer</d:tags>
<d:license style="animation-play-state:paused" >by</d:license>
<d:slug style="animation-play-state:paused" >1mxq2h</d:slug></metadata></g><!-- generated by https://loading.io/ --></svg>